<svg width="40" height="40" viewBox="0 0 40 40" fill="none" xmlns="http://www.w3.org/2000/svg">
<path d="M20 10.8334C21.105 10.8334 22.1649 11.2724 22.9463 12.0538C23.7277 12.8352 24.1666 13.895 24.1666 15C24.1666 15.5472 24.0589 16.089 23.8495 16.5946C23.6401 17.1001 23.3332 17.5594 22.9463 17.9463C22.5593 18.3332 22.1 18.6401 21.5945 18.8495C21.089 19.0589 20.5472 19.1667 20 19.1667C18.8949 19.1667 17.8351 18.7277 17.0537 17.9463C16.2723 17.1649 15.8333 16.1051 15.8333 15C15.8333 13.895 16.2723 12.8352 17.0537 12.0538C17.8351 11.2724 18.8949 10.8334 20 10.8334ZM20 3.33337C23.0942 3.33337 26.0616 4.56254 28.2496 6.75046C30.4375 8.93839 31.6666 11.9058 31.6666 15C31.6666 23.75 20 36.6667 20 36.6667C20 36.6667 8.33331 23.75 8.33331 15C8.33331 11.9058 9.56248 8.93839 11.7504 6.75046C13.9383 4.56254 16.9058 3.33337 20 3.33337ZM20 6.66671C17.7898 6.66671 15.6702 7.54468 14.1074 9.10748C12.5446 10.6703 11.6666 12.7899 11.6666 15C11.6666 16.6667 11.6666 20 20 31.1834C28.3333 20 28.3333 16.6667 28.3333 15C28.3333 12.7899 27.4553 10.6703 25.8925 9.10748C24.3297 7.54468 22.2101 6.66671 20 6.66671Z" fill="black"/>
</svg>
