<svg width="16" height="16" viewBox="0 0 16 16" fill="none" xmlns="http://www.w3.org/2000/svg">
<path d="M7.99951 11.2496C7.56386 11.2495 7.14338 11.0999 6.80713 10.8288L6.66846 10.7057V10.7047L1.98584 6.09633C1.9113 6.02366 1.85148 5.93639 1.81104 5.84047C1.77066 5.74466 1.74954 5.6417 1.74951 5.53773C1.74951 5.43363 1.77059 5.32994 1.81104 5.23402C1.85133 5.13858 1.91177 5.05352 1.98584 4.98109L1.98486 4.98012C2.13446 4.83311 2.33567 4.75064 2.54541 4.75063C2.75517 4.75063 2.95635 4.8331 3.10596 4.98012L7.7915 9.58949V9.59047C7.84682 9.64519 7.92172 9.67532 7.99951 9.67543C8.07746 9.67543 8.15308 9.64529 8.2085 9.59047V9.58949L12.894 4.97914C13.0437 4.83212 13.2448 4.74965 13.4546 4.74965C13.6643 4.74969 13.8656 4.83216 14.0151 4.97914L14.0142 4.98012C14.0883 5.05249 14.1486 5.13762 14.189 5.23305C14.2295 5.32903 14.2505 5.43256 14.2505 5.53676C14.2505 5.64101 14.2295 5.74443 14.189 5.84047C14.1484 5.93653 14.0889 6.02364 14.0142 6.09633L9.33154 10.7047V10.7057C8.97628 11.0545 8.4974 11.2496 7.99951 11.2496Z" fill="black" stroke="black" stroke-width="0.5"/>
</svg>
