<svg width="85" height="85" viewBox="0 0 85 85" fill="none" xmlns="http://www.w3.org/2000/svg">
<path d="M31.8803 22.7906L31.8856 18.5831C31.8885 15.767 33.0091 13.0673 35.0014 11.077C36.9937 9.08671 39.6946 7.96875 42.5106 7.96875C48.365 7.96875 53.1091 12.7128 53.1091 18.5672V22.78C61.6647 25.3298 69.0183 30.8711 73.8274 38.3926C78.6366 45.914 80.5808 54.9141 79.305 63.75H5.68971C4.41615 54.9171 6.3601 45.9208 11.167 38.4018C15.9739 30.8828 23.3234 25.3422 31.875 22.7906H31.8803ZM7.96877 69.0625H77.0313C77.7357 69.0625 78.4114 69.3424 78.9095 69.8405C79.4077 70.3386 79.6875 71.0143 79.6875 71.7188C79.6875 72.4232 79.4077 73.0989 78.9095 73.597C78.4114 74.0951 77.7357 74.375 77.0313 74.375H7.96877C7.26429 74.375 6.58866 74.0951 6.09052 73.597C5.59237 73.0989 5.31252 72.4232 5.31252 71.7188C5.31252 71.0143 5.59237 70.3386 6.09052 69.8405C6.58866 69.3424 7.26429 69.0625 7.96877 69.0625ZM10.625 58.4375H74.375C74.375 54.2516 73.5505 50.1067 71.9487 46.2395C70.3468 42.3722 67.9989 38.8583 65.039 35.8985C62.0792 32.9386 58.5653 30.5907 54.6981 28.9888C50.8308 27.387 46.6859 26.5625 42.5 26.5625C38.3141 26.5625 34.1692 27.387 30.302 28.9888C26.4347 30.5907 22.9209 32.9386 19.961 35.8985C17.0011 38.8583 14.6532 42.3722 13.0514 46.2395C11.4495 50.1067 10.625 54.2516 10.625 58.4375ZM47.7966 21.25V18.5672C47.7966 17.1653 47.2397 15.8208 46.2484 14.8295C45.2571 13.8382 43.9126 13.2812 42.5106 13.2812C41.1026 13.2812 39.7522 13.8402 38.756 14.8354C37.7599 15.8305 37.1996 17.1804 37.1981 18.5884V21.25H47.7966Z" fill="black"/>
</svg>
