<svg width="50" height="50" viewBox="0 0 50 50" fill="none" xmlns="http://www.w3.org/2000/svg">
<path d="M16.25 4.16663H33.75C40.4166 4.16663 45.8333 9.58329 45.8333 16.25V33.75C45.8333 36.9547 44.5602 40.0281 42.2942 42.2942C40.0281 44.5602 36.9547 45.8333 33.75 45.8333H16.25C9.58329 45.8333 4.16663 40.4166 4.16663 33.75V16.25C4.16663 13.0453 5.43969 9.97182 7.70575 7.70575C9.97182 5.43969 13.0453 4.16663 16.25 4.16663ZM15.8333 8.33329C13.8442 8.33329 11.9365 9.12347 10.53 10.53C9.12347 11.9365 8.33329 13.8442 8.33329 15.8333V34.1666C8.33329 38.3125 11.6875 41.6666 15.8333 41.6666H34.1666C36.1558 41.6666 38.0634 40.8765 39.4699 39.4699C40.8765 38.0634 41.6666 36.1558 41.6666 34.1666V15.8333C41.6666 11.6875 38.3125 8.33329 34.1666 8.33329H15.8333ZM35.9375 11.4583C36.6281 11.4583 37.2905 11.7327 37.7789 12.221C38.2673 12.7094 38.5416 13.3718 38.5416 14.0625C38.5416 14.7531 38.2673 15.4155 37.7789 15.9039C37.2905 16.3923 36.6281 16.6666 35.9375 16.6666C35.2468 16.6666 34.5844 16.3923 34.096 15.9039C33.6077 15.4155 33.3333 14.7531 33.3333 14.0625C33.3333 13.3718 33.6077 12.7094 34.096 12.221C34.5844 11.7327 35.2468 11.4583 35.9375 11.4583ZM25 14.5833C27.7626 14.5833 30.4122 15.6808 32.3657 17.6343C34.3192 19.5878 35.4166 22.2373 35.4166 25C35.4166 27.7626 34.3192 30.4122 32.3657 32.3657C30.4122 34.3192 27.7626 35.4166 25 35.4166C22.2373 35.4166 19.5878 34.3192 17.6343 32.3657C15.6808 30.4122 14.5833 27.7626 14.5833 25C14.5833 22.2373 15.6808 19.5878 17.6343 17.6343C19.5878 15.6808 22.2373 14.5833 25 14.5833ZM25 18.75C23.3424 18.75 21.7526 19.4084 20.5805 20.5805C19.4084 21.7526 18.75 23.3424 18.75 25C18.75 26.6576 19.4084 28.2473 20.5805 29.4194C21.7526 30.5915 23.3424 31.25 25 31.25C26.6576 31.25 28.2473 30.5915 29.4194 29.4194C30.5915 28.2473 31.25 26.6576 31.25 25C31.25 23.3424 30.5915 21.7526 29.4194 20.5805C28.2473 19.4084 26.6576 18.75 25 18.75Z" fill="black"/>
</svg>
