<svg width="40" height="40" viewBox="0 0 40 40" fill="none" xmlns="http://www.w3.org/2000/svg">
<path d="M9.28498 13.145C8.80748 10 11.025 7.17502 14.4125 6.14002C15.0136 5.95747 15.6617 6.01036 16.2253 6.28798C16.7889 6.5656 17.2258 7.04716 17.4475 7.63502L18.535 10.535C18.71 11.0016 18.7417 11.5098 18.6259 11.9944C18.5101 12.4791 18.2521 12.918 17.885 13.255L14.65 16.2175C14.4903 16.3637 14.3714 16.5488 14.3047 16.7548C14.2381 16.9608 14.2262 17.1805 14.27 17.3925L14.3 17.5225L14.3775 17.8475C14.7808 19.4263 15.3937 20.944 16.2 22.36C17.0803 23.8636 18.1714 25.2333 19.44 26.4275L19.54 26.5175C19.7015 26.6609 19.8974 26.7599 20.1085 26.8051C20.3197 26.8502 20.539 26.8398 20.745 26.775L24.9275 25.4575C25.4028 25.3083 25.9119 25.3045 26.3894 25.4466C26.8669 25.5887 27.2911 25.8702 27.6075 26.255L29.5875 28.6575C30.4125 29.6575 30.3125 31.1275 29.365 32.01C26.7725 34.4275 23.2075 34.9225 20.7275 32.93C17.6863 30.4792 15.1234 27.4883 13.1675 24.1075C11.1925 20.7312 9.87676 17.0116 9.28498 13.145ZM16.89 17.5575L19.57 15.0975C20.3046 14.4239 20.8211 13.546 21.0531 12.5767C21.2852 11.6074 21.2223 10.5908 20.8725 9.65752L19.7875 6.75752C19.3424 5.57445 18.4636 4.60517 17.3297 4.04657C16.1958 3.48797 14.8917 3.38194 13.6825 3.75002C9.47498 5.03752 6.09748 8.81002 6.81248 13.5225C7.31248 16.8125 8.46498 20.9975 11.0075 25.3675C13.1178 29.0128 15.8823 32.2376 19.1625 34.88C22.8825 37.8675 27.8475 36.8475 31.0725 33.8425C31.9953 32.9833 32.5554 31.8044 32.6385 30.5462C32.7217 29.2881 32.3216 28.0457 31.52 27.0725L29.54 24.6675C28.9066 23.8987 28.058 23.3366 27.103 23.0534C26.148 22.7701 25.1301 22.7785 24.18 23.0775L20.7075 24.17C19.8108 23.2457 19.0255 22.2195 18.3675 21.1125C17.7325 19.9931 17.2372 18.8 16.8925 17.56" fill="black"/>
</svg>
