<svg width="85" height="85" viewBox="0 0 85 85" fill="none" xmlns="http://www.w3.org/2000/svg">
<path d="M42.5 2.65625C20.495 2.65625 2.65625 20.495 2.65625 42.5C2.65625 64.505 20.495 82.3438 42.5 82.3438C64.505 82.3438 82.3438 64.505 82.3438 42.5C82.3438 20.495 64.505 2.65625 42.5 2.65625ZM66.9172 66.9172C60.8627 72.9537 52.7777 76.5198 44.2375 76.9207C35.6973 77.3216 27.3137 74.5286 20.7203 69.0859C14.1269 63.6432 9.79602 55.9407 8.57153 47.4792C7.34703 39.0177 9.31665 30.4034 14.0966 23.3149C18.8765 16.2263 26.1244 11.1712 34.4279 9.13455C42.7314 7.09794 51.4957 8.2257 59.0131 12.2981C66.5305 16.3705 72.2625 23.0958 75.0921 31.1636C77.9218 39.2313 77.6464 48.0636 74.3197 55.9395C72.586 60.0434 70.072 63.7716 66.9172 66.9172Z" fill="black"/>
<path d="M25.2344 33.2031H31.875V39.8438H25.2344V33.2031ZM53.125 33.2031H59.7656V39.8438H53.125V33.2031ZM56.1613 51C55.1337 53.5928 53.3489 55.816 51.0394 57.3795C48.7299 58.9431 46.0029 59.7746 43.2139 59.7656H41.7861C38.9971 59.7747 36.2699 58.9433 33.9603 57.3797C31.6507 55.8161 29.8658 53.5929 28.8382 51L28.6259 50.4688H22.9048L23.9063 52.9724C25.3356 56.5459 27.803 59.6091 30.99 61.7669C34.1769 63.9247 37.9374 65.078 41.7861 65.0781H43.2139C47.0626 65.078 50.8231 63.9247 54.01 61.7669C57.197 59.6091 59.6644 56.5459 61.0938 52.9724L62.0952 50.4688H56.3736L56.1613 51Z" fill="black"/>
</svg>
