<svg width="225" height="44" viewBox="0 0 225 44" fill="none" xmlns="http://www.w3.org/2000/svg">
<path d="M27.0791 16.8115L27.3135 17.3662L27.9131 17.418L39.0596 18.3848L30.626 25.6973L30.1709 26.0918L30.3066 26.6787L32.8203 37.5469L23.2666 31.7842L22.75 31.4727L22.2334 31.7842L12.6787 37.5469L15.1934 26.6787L15.3291 26.0918L14.874 25.6973L6.43945 18.3848L17.5869 17.418L18.1865 17.3662L18.4209 16.8115L22.75 6.56836L27.0791 16.8115Z" fill="#FFBB00" stroke="#FFBB00" stroke-width="2"/>
<path d="M72.0791 16.8115L72.3135 17.3662L72.9131 17.418L84.0596 18.3848L75.626 25.6973L75.1709 26.0918L75.3066 26.6787L77.8203 37.5469L68.2666 31.7842L67.75 31.4727L67.2334 31.7842L57.6787 37.5469L60.1934 26.6787L60.3291 26.0918L59.874 25.6973L51.4395 18.3848L62.5869 17.418L63.1865 17.3662L63.4209 16.8115L67.75 6.56836L72.0791 16.8115Z" fill="#FFBB00" stroke="#FFBB00" stroke-width="2"/>
<path d="M117.079 16.8115L117.313 17.3662L117.913 17.418L129.06 18.3848L120.626 25.6973L120.171 26.0918L120.307 26.6787L122.82 37.5469L113.267 31.7842L112.75 31.4727L112.233 31.7842L102.679 37.5469L105.193 26.6787L105.329 26.0918L104.874 25.6973L96.4395 18.3848L107.587 17.418L108.187 17.3662L108.421 16.8115L112.75 6.56836L117.079 16.8115Z" fill="#FFBB00" stroke="#FFBB00" stroke-width="2"/>
<path d="M162.079 16.8115L162.313 17.3662L162.913 17.418L174.06 18.3848L165.626 25.6973L165.171 26.0918L165.307 26.6787L167.82 37.5469L158.267 31.7842L157.75 31.4727L157.233 31.7842L147.679 37.5469L150.193 26.6787L150.329 26.0918L149.874 25.6973L141.439 18.3848L152.587 17.418L153.187 17.3662L153.421 16.8115L157.75 6.56836L162.079 16.8115Z" fill="#FFBB00" stroke="#FFBB00" stroke-width="2"/>
<path d="M207.079 16.8115L207.313 17.3662L207.913 17.418L219.06 18.3848L210.626 25.6973L210.171 26.0918L210.307 26.6787L212.82 37.5469L203.267 31.7842L202.75 31.4727L202.233 31.7842L192.679 37.5469L195.193 26.6787L195.329 26.0918L194.874 25.6973L186.439 18.3848L197.587 17.418L198.187 17.3662L198.421 16.8115L202.75 6.56836L207.079 16.8115Z" fill="#FFBB00" stroke="#FFBB00" stroke-width="2"/>
</svg>
